<svg version="1.1" xmlns="http://www.w3.org/2000/svg" xmlns:xlink="http://www.w3.org/1999/xlink" x="0px" y="0px" width="32px" height="32px" viewBox="0 0 32 32" style="enable-background:new 0 0 32 32;" xml:space="preserve">
<g>
	<path class="st0" d="M26.9,2.5c1.4,0,2.5,1.1,2.5,2.5v22.2c0,1.4-1.1,2.5-2.5,2.5H4.8c-1.4,0-2.5-1.1-2.5-2.5V4.9
		c0-1.4,1.1-2.5,2.5-2.5H26.9 M26.9,0H4.8C2.1,0-0.1,2.2-0.1,4.9v22.2c0,2.7,2.2,4.9,4.9,4.9h22.2c2.7,0,4.9-2.2,4.9-4.9V4.9
		C31.9,2.2,29.6,0,26.9,0L26.9,0z"></path>
	<g>
		<path class="st1" d="M8.2,22.4c-0.4-0.6-0.1-1.4,0.7-1.8c4.3-2.1,9.3-2.1,13.5,0c0.8,0.4,1.1,1.2,0.7,1.8l0,0
			c-0.4,0.6-1.1,0.7-1.8,0.4c-3.6-1.8-7.8-1.8-11.4,0C9.3,23.1,8.5,23,8.2,22.4L8.2,22.4z"></path>
		<path class="st4" d="M23.7,17c-0.1,1-0.8,1.7-1.5,1.5c-0.7-0.2-1.1-0.9-1.1-1.6c0.1-0.7,1.1-2.5,1.1-2.5
			C22.2,14.2,23.8,15.9,23.7,17z"></path>
		<g>
			<circle class="st2" cx="11" cy="12.1" r="2.1"></circle>
			<circle class="st2" cx="19.9" cy="12.1" r="2.1"></circle>
		</g>
	</g>
</g>
</svg>