<svg version="1.1" xmlns="http://www.w3.org/2000/svg" xmlns:xlink="http://www.w3.org/1999/xlink" x="0px" y="0px" width="32px" height="32px" viewBox="0 0 32 32" style="enable-background:new 0 0 32 32;" xml:space="preserve">
<g>
	<path class="st0" d="M27.1,2.5c1.4,0,2.5,1.1,2.5,2.5v22.2c0,1.4-1.1,2.5-2.5,2.5H4.9c-1.4,0-2.5-1.1-2.5-2.5V4.9
		c0-1.4,1.1-2.5,2.5-2.5H27.1 M27.1,0H4.9C2.2,0,0,2.2,0,4.9v22.2C0,29.8,2.2,32,4.9,32h22.2c2.7,0,4.9-2.2,4.9-4.9V4.9
		C32,2.2,29.8,0,27.1,0L27.1,0z"></path>
	<g>
		<path class="st3" d="M23.1,20.8c0,3.5-3.2,6.3-7.1,6.3c-3.9,0-7.1-2.8-7.1-6.3s3.2,0,7.1,0C19.9,20.8,23.1,17.3,23.1,20.8z"></path>
		<g>
			<g>
				<circle class="st2" cx="10.8" cy="13.3" r="1.1"></circle>
			</g>
			<g>
				<circle class="st2" cx="21.2" cy="13.3" r="1.1"></circle>
			</g>
			<path class="st1" d="M21.2,8.7c-2.3,0-4.3,1.8-4.6,4h-1.1c-0.1,0-0.1,0-0.1,0c-0.3-2.3-2.2-4-4.6-4c-2.5,0-4.6,2.1-4.6,4.6
				c0,2.5,2.1,4.6,4.6,4.6c2.3,0,4.3-1.8,4.6-4c0,0,0.1,0,0.1,0h1.1c0.3,2.3,2.2,4,4.6,4c2.5,0,4.6-2.1,4.6-4.6
				C25.8,10.8,23.7,8.7,21.2,8.7z M10.8,16.7c-1.9,0-3.4-1.5-3.4-3.4S9,9.9,10.8,9.9c1.9,0,3.4,1.5,3.4,3.4S12.7,16.7,10.8,16.7z
				 M21.2,16.7c-1.9,0-3.4-1.5-3.4-3.4s1.5-3.4,3.4-3.4s3.4,1.5,3.4,3.4S23,16.7,21.2,16.7z"></path>
		</g>
		<path class="st4" d="M13.6,6.8c-0.2,0.3-0.6,0.4-0.9,0.2c-1.1-0.6-2.3-0.3-3.2,0.7C9.2,7.9,8.8,8,8.6,7.8l0,0
			C8.3,7.6,8.3,6.9,8.7,6.5c1.2-1.4,3-1.8,4.5-0.9C13.6,5.8,13.8,6.4,13.6,6.8L13.6,6.8z"></path>
		<path class="st4" d="M18.4,6.8c0.2,0.3,0.6,0.4,0.9,0.2c1.1-0.6,2.3-0.3,3.2,0.7c0.3,0.3,0.6,0.4,0.9,0.2l0,0
			c0.3-0.2,0.2-0.9-0.1-1.3c-1.2-1.4-3-1.8-4.5-0.9C18.4,5.8,18.2,6.4,18.4,6.8L18.4,6.8z"></path>
	</g>
</g>
</svg>