<svg version="1.1" xmlns="http://www.w3.org/2000/svg" xmlns:xlink="http://www.w3.org/1999/xlink" x="0px" y="0px" width="32px" height="32px" viewBox="0 0 32 32" style="enable-background:new 0 0 32 32;" xml:space="preserve">
<g>
  <title>background</title>
  <rect fill="none" id="canvas_background" height="402" width="582" y="-1" x="-1"></rect>
 </g>
 <g>
  <title>Layer 1</title>
  <g id="svg_1">
   <path id="svg_2" d="m27,2.5c1.4,0 2.5,1.1 2.5,2.5l0,22.2c0,1.4 -1.1,2.5 -2.5,2.5l-22.2,0c-1.4,0 -2.5,-1.1 -2.5,-2.5l0,-22.3c0,-1.4 1.1,-2.5 2.5,-2.5l22.2,0m0,-2.4l-22.2,0c-2.7,0 -4.9,2.2 -4.9,4.9l0,22.2c0,2.7 2.2,4.9 4.9,4.9l22.2,0c2.7,0 4.9,-2.2 4.9,-4.9l0,-22.2c0,-2.7 -2.2,-4.9 -4.9,-4.9l0,0z" class="st0"></path>
   <path stroke="null" id="svg_3" d="m17.6,23.2c0,0.5 -0.4,0.9 -0.9,0.9l-1.4,0c-0.5,0 -0.9,-0.4 -0.9,-0.9l0,0c0,-0.5 0.4,-0.9 0.9,-0.9l1.4,0c0.5,0 0.9,0.4 0.9,0.9l0,0z" class="st1"></path>
   <g id="svg_4">
    <g id="svg_7">
     <line stroke="null" stroke-linecap="null" stroke-linejoin="null" id="svg_10" y2="13.288275" x2="11.974104" y1="13.175663" x1="8.820954" fill-opacity="null" stroke-opacity="null" stroke-width="null" fill="none"></line>
    </g>
    <path id="svg_9" d="m21.2,8.8c-2.3,0 -4.3,1.8 -4.6,4l-1.1,0c-0.1,0 -0.1,0 -0.1,0c-0.3,-2.3 -2.2,-4 -4.6,-4c-2.5,0 -4.6,2.1 -4.6,4.6c0,2.5 2.1,4.6 4.6,4.6c2.3,0 4.3,-1.8 4.6,-4c0,0 0.1,0 0.1,0l1.1,0c0.3,2.3 2.2,4 4.6,4c2.5,0 4.6,-2.1 4.6,-4.6c0,-2.5 -2.1,-4.6 -4.6,-4.6zm-10.3,8c-1.9,0 -3.4,-1.5 -3.4,-3.4s1.5,-3.4 3.4,-3.4c1.9,0 3.4,1.5 3.4,3.4s-1.6,3.4 -3.4,3.4zm10.3,0c-1.9,0 -3.4,-1.5 -3.4,-3.4s1.5,-3.4 3.4,-3.4c1.9,0 3.4,1.5 3.4,3.4s-1.5,3.4 -3.4,3.4z" class="st3"></path>
   </g>
   <path stroke="null" id="svg_13" d="m12.982887,13.459018c0,0.281031 -0.540766,0.505856 -1.216723,0.505856l-1.89268,0c-0.675957,0 -1.216723,-0.224825 -1.216723,-0.505856l0,0c0,-0.281031 0.540766,-0.505856 1.216723,-0.505856l1.89268,0c0.675957,0 1.216723,0.224825 1.216723,0.505856l0,0z" class="st2"></path>
   <path stroke="null" id="svg_14" d="m23.568462,13.571631c0,0.281031 -0.540765,0.505856 -1.216722,0.505856l-1.89268,0c-0.675957,0 -1.216722,-0.224825 -1.216722,-0.505856l0,0c0,-0.281031 0.540765,-0.505856 1.216722,-0.505856l1.89268,0c0.675957,0 1.216722,0.224825 1.216722,0.505856l0,0z" class="st2"></path>
  </g>
  <path id="svg_12" d="m8.933566,12.837825c2.027025,0 -2.027025,0.337838 0,0.45045c2.027025,0.112613 2.25225,2.7027 2.215071,2.702699" opacity="0.5" fill-opacity="null" stroke-opacity="null" stroke-width="null" stroke="null" fill="none"></path>
  <path d="m8.933566,13.288276c0,0 0.112613,0 0.112613,0c0,0 0.112613,0 0.337837,0c0.225225,0 0.430603,0.054758 0.675675,0.112612c0.1096,0.025873 0.225224,0 0.225224,0c0.112613,0 0.112613,0 0.225225,0c0,0 0.112613,0 0.225225,0c0.112612,0 0.225224,0 0.225224,0c0.112613,0 0.112613,0 0.112613,0c0.112613,0 0.112613,0 0.225224,0c0,0 0.112613,0 0.112613,0c0.112613,0 0.112613,0 0.112613,0l0.112613,0" id="svg_11" fill-opacity="null" stroke-opacity="null" stroke-width="null" stroke="null" fill="none"></path>
 </g>
</svg>