<svg version="1.1" xmlns="http://www.w3.org/2000/svg" xmlns:xlink="http://www.w3.org/1999/xlink" x="0px" y="0px" width="32px" height="32px" viewBox="0 0 32 32" style="enable-background:new 0 0 32 32;" xml:space="preserve">
<g>
	<path class="st0" d="M27.1,2.8c1.4,0,2.5,1.1,2.5,2.5v22.2c0,1.4-1.1,2.5-2.5,2.5H4.9c-1.4,0-2.5-1.1-2.5-2.5V5.3
		c0-1.4,1.1-2.5,2.5-2.5H27.1 M27.1,0.4H4.9C2.2,0.4,0,2.6,0,5.3v22.2c0,2.7,2.2,4.9,4.9,4.9h22.2c2.7,0,4.9-2.2,4.9-4.9V5.3
		C32,2.6,29.8,0.4,27.1,0.4L27.1,0.4z"></path>
	<path class="st1" d="M15.9,23.6c0,0.6-0.5,1.1-1.1,1.1h-1.6c-0.6,0-1.1-0.5-1.1-1.1l0,0c0-0.6,0.5-1.1,1.1-1.1h1.6
		C15.4,22.5,15.9,23,15.9,23.6L15.9,23.6z"></path>
	<path class="st2" d="M11.2,11.1c-2.1,0-3.8,1.7-3.8,3.8c0,2.1,1.7,3.8,3.8,3.8c2.1,0,3.8-1.7,3.8-3.8C15,12.8,13.3,11.1,11.2,11.1z
		 M11.8,15.3c-0.9,0-1.5-0.7-1.5-1.5c0-0.9,0.7-1.5,1.5-1.5c0.9,0,1.5,0.7,1.5,1.5C13.3,14.6,12.6,15.3,11.8,15.3z"></path>
	<path class="st2" d="M20.2,10.3c-2.4,0-4.4,2-4.4,4.4s2,4.4,4.4,4.4s4.4-2,4.4-4.4S22.6,10.3,20.2,10.3z M18.9,17.3
		c-0.9,0-1.5-0.7-1.5-1.5c0-0.9,0.7-1.5,1.5-1.5c0.9,0,1.5,0.7,1.5,1.5C20.5,16.6,19.8,17.3,18.9,17.3z"></path>
	<path class="st3" d="M12.8,8.3c0.1,0.5-0.2,0.9-0.6,1c-1.3,0.3-2.6,0.8-3.8,1.5c-0.4,0.2-0.8,0.1-1.1-0.3l0,0
		C7.1,10,7.2,9.4,7.6,9.2c1.3-0.8,2.7-1.3,4.2-1.6C12.2,7.5,12.7,7.8,12.8,8.3L12.8,8.3z"></path>
	<path class="st3" d="M23.7,9.5c-0.3,0.4-0.8,0.4-1.1,0.2c-1.1-0.8-2.3-1.5-3.6-1.9c-0.4-0.1-0.6-0.6-0.4-1l0,0
		c0.1-0.4,0.6-0.7,1.1-0.5c1.4,0.5,2.8,1.2,4,2.1C24,8.6,24,9.1,23.7,9.5L23.7,9.5z"></path>
</g>
</svg>