<svg version="1.1" xmlns="http://www.w3.org/2000/svg" xmlns:xlink="http://www.w3.org/1999/xlink" x="0px" y="0px" width="32px" height="32px" viewBox="0 0 32 32" style="enable-background:new 0 0 32 32;" xml:space="preserve">
<g>
	<path class="st0" d="M27,2.5c1.4,0,2.5,1.1,2.5,2.5v22.2c0,1.4-1.1,2.5-2.5,2.5H4.8c-1.4,0-2.5-1.1-2.5-2.5V4.9
		c0-1.4,1.1-2.5,2.5-2.5H27 M27,0H4.8C2.1,0-0.1,2.2-0.1,4.9v22.2c0,2.7,2.2,4.9,4.9,4.9H27c2.7,0,4.9-2.2,4.9-4.9V4.9
		C31.9,2.2,29.7,0,27,0L27,0z"></path>
	<path class="st1" d="M17.6,23.2c0,0.5-0.4,0.9-0.9,0.9h-1.4c-0.5,0-0.9-0.4-0.9-0.9l0,0c0-0.5,0.4-0.9,0.9-0.9h1.4
		C17.2,22.3,17.6,22.7,17.6,23.2L17.6,23.2z"></path>
	<g>
		<g>
			<circle class="st2" cx="10.8" cy="13.4" r="1.1"></circle>
		</g>
		<g>
			<circle class="st2" cx="21.2" cy="13.4" r="1.1"></circle>
		</g>
		<path class="st3" d="M21.2,8.8c-2.3,0-4.3,1.8-4.6,4h-1.1c-0.1,0-0.1,0-0.1,0c-0.3-2.3-2.2-4-4.6-4c-2.5,0-4.6,2.1-4.6,4.6
			c0,2.5,2.1,4.6,4.6,4.6c2.3,0,4.3-1.8,4.6-4c0,0,0.1,0,0.1,0h1.1c0.3,2.3,2.2,4,4.6,4c2.5,0,4.6-2.1,4.6-4.6
			C25.8,10.9,23.7,8.8,21.2,8.8z M10.9,16.8c-1.9,0-3.4-1.5-3.4-3.4S9,10,10.9,10c1.9,0,3.4,1.5,3.4,3.4S12.7,16.8,10.9,16.8z
			 M21.2,16.8c-1.9,0-3.4-1.5-3.4-3.4s1.5-3.4,3.4-3.4c1.9,0,3.4,1.5,3.4,3.4S23.1,16.8,21.2,16.8z"></path>
	</g>
</g>
</svg>